<mxfile host="app.diagrams.net" agent="Mozilla/5.0 (Windows NT 10.0; Win64; x64) AppleWebKit/537.36 (KHTML, like Gecko) Chrome/141.0.0.0 Safari/537.36 Edg/141.0.0.0" version="28.2.8">
  <diagram name="第 1 页" id="bzrGKcWyPYaseyWbdZCn">
    <mxGraphModel dx="753" dy="483" grid="1" gridSize="10" guides="1" tooltips="1" connect="1" arrows="1" fold="1" page="1" pageScale="1" pageWidth="827" pageHeight="1169" math="0" shadow="0">
      <root>
        <mxCell id="0" />
        <mxCell id="1" parent="0" />
        <mxCell id="YzI4RzRZMXD7CQTbj7aD-2" value="" style="rounded=1;whiteSpace=wrap;html=1;dashed=1;dashPattern=8 8;" vertex="1" parent="1">
          <mxGeometry x="50" y="70" width="350" height="140" as="geometry" />
        </mxCell>
        <mxCell id="YzI4RzRZMXD7CQTbj7aD-3" value="Reward Model" style="text;html=1;whiteSpace=wrap;strokeColor=none;fillColor=none;align=center;verticalAlign=middle;rounded=0;" vertex="1" parent="1">
          <mxGeometry x="162.5" y="70" width="125" height="30" as="geometry" />
        </mxCell>
        <mxCell id="YzI4RzRZMXD7CQTbj7aD-4" value="" style="shape=image;verticalLabelPosition=bottom;labelBackgroundColor=default;verticalAlign=top;aspect=fixed;imageAspect=0;editableCssRules=.*;image=data:image/svg+xml,PHN2ZyB4bWxuczp4bGluaz0iaHR0cDovL3d3dy53My5vcmcvMTk5OS94bGluayIgeG1sbnM9Imh0dHA6Ly93d3cudzMub3JnLzIwMDAvc3ZnIiBoZWlnaHQ9IjE2Ni4zMDAwMTA2ODExNTIzNCIgd2lkdGg9IjE0MS4zNDk5OTUxMzYyNjEiIHZlcnNpb249IjEuMSIgdmlld0JveD0iMTYzLjczNzYwOTg2MzI4MTI1IDkwLjcyNjQwOTkxMjEwOTM4IDcyMy43MTE5NzUwOTc2NTYyIDg1MS40NTYwNTQ2ODc1IiBjbGFzcz0iaWNvbiI+PHBhdGggZmlsbD0iI0ZGRDA1QyIgZD0iTTY0OS40NzIgOTQyLjE4MjRIMjk2Ljg1NzZjLTczLjUyMzIgMC0xMzMuMTItNTkuNTk2OC0xMzMuMTItMTMzLjEyVjIyMy44NDY0YzAtNzMuNTIzMiA1OS41OTY4LTEzMy4xMiAxMzMuMTItMTMzLjEyaDQ1Ny40NzJjNzMuNTIzMiAwIDEzMy4xMiA1OS41OTY4IDEzMy4xMiAxMzMuMTJ2NDAxLjMwNTZsLTIzNy45Nzc2IDMxNy4wMzA0eiIvPjxwYXRoIGZpbGw9IiNGRkZGRkYiIGQ9Ik02ODkuNTYxNiAzMzIuMzkwNGgtMzI1LjEyYy0yMi42MzA0IDAtNDAuOTYtMTguMzI5Ni00MC45Ni00MC45NnMxOC4zMjk2LTQwLjk2IDQwLjk2LTQwLjk2aDMyNS4xMmMyMi42MzA0IDAgNDAuOTYgMTguMzI5NiA0MC45NiA0MC45NnMtMTguMzI5NiA0MC45Ni00MC45NiA0MC45NnpNNjg5LjU2MTYgNTAyLjQ3NjhoLTMyNS4xMmMtMjIuNjMwNCAwLTQwLjk2LTE4LjMyOTYtNDAuOTYtNDAuOTZzMTguMzI5Ni00MC45NiA0MC45Ni00MC45NmgzMjUuMTJjMjIuNjMwNCAwIDQwLjk2IDE4LjMyOTYgNDAuOTYgNDAuOTZzLTE4LjMyOTYgNDAuOTYtNDAuOTYgNDAuOTZ6TTU2NC40Mjg4IDY3Mi41NjMySDM2NC40NDE2Yy0yMi42MzA0IDAtNDAuOTYtMTguMzI5Ni00MC45Ni00MC45NnMxOC4zMjk2LTQwLjk2IDQwLjk2LTQwLjk2aDE5OS45ODcyYzIyLjYzMDQgMCA0MC45NiAxOC4zMjk2IDQwLjk2IDQwLjk2cy0xOC4zMjk2IDQwLjk2LTQwLjk2IDQwLjk2eiIvPjxwYXRoIGZpbGw9IiNGQ0EyMzUiIGQ9Ik03NDMuNjI4OCA2MjUuMDQ5NmMtNTIuMDE5MiAwLTk0LjIwOCA0Mi4xODg4LTk0LjIwOCA5NC4yMDh2MjIyLjkyNDhoMC4xMDI0bDIzNy45MjY0LTMxNy4wODE2di0wLjEwMjRoLTE0My44MjA4eiIvPjwvc3ZnPg==;" vertex="1" parent="1">
          <mxGeometry x="70" y="100" width="22.08" height="26" as="geometry" />
        </mxCell>
        <mxCell id="YzI4RzRZMXD7CQTbj7aD-5" value="&lt;font style=&quot;font-size: 8px;&quot;&gt;Instruction&lt;/font&gt;" style="text;html=1;whiteSpace=wrap;strokeColor=none;fillColor=none;align=center;verticalAlign=middle;rounded=0;" vertex="1" parent="1">
          <mxGeometry x="61.56" y="126" width="38.96" height="16" as="geometry" />
        </mxCell>
        <mxCell id="YzI4RzRZMXD7CQTbj7aD-6" value="" style="shape=image;verticalLabelPosition=bottom;labelBackgroundColor=default;verticalAlign=top;aspect=fixed;imageAspect=0;image=data:image/jpeg,/9j/4AAQSkZJRgABAQAAAQABAAD/2wBDAAIBAQEBAQIBAQECAgICAgQDAgICAgUEBAMEBgUGBgYFBgYGBwkIBgcJBwYGCAsICQoKCgoKBggLDAsKDAkKCgr/2wBDAQICAgICAgUDAwUKBwYHCgoKCgoKCgoKCgoKCgoKCgoKCgoKCgoKCgoKCgoKCgoKCgoKCgoKCgoKCgoKCgoKCgr/wAARCADwAUADASIAAhEBAxEB/8QAHwAAAQUBAQEBAQEAAAAAAAAAAAECAwQFBgcICQoL/8QAtRAAAgEDAwIEAwUFBAQAAAF9AQIDAAQRBRIhMUEGE1FhByJxFDKBkaEII0KxwRVS0fAkM2JyggkKFhcYGRolJicoKSo0NTY3ODk6Q0RFRkdISUpTVFVWV1hZWmNkZWZnaGlqc3R1dnd4eXqDhIWGh4iJipKTlJWWl5iZmqKjpKWmp6ipqrKztLW2t7i5usLDxMXGx8jJytLT1NXW19jZ2uHi4+Tl5ufo6erx8vP09fb3+Pn6/8QAHwEAAwEBAQEBAQEBAQAAAAAAAAECAwQFBgcICQoL/8QAtREAAgECBAQDBAcFBAQAAQJ3AAECAxEEBSExBhJBUQdhcRMiMoEIFEKRobHBCSMzUvAVYnLRChYkNOEl8RcYGRomJygpKjU2Nzg5OkNERUZHSElKU1RVVldYWVpjZGVmZ2hpanN0dXZ3eHl6goOEhYaHiImKkpOUlZaXmJmaoqOkpaanqKmqsrO0tba3uLm6wsPExcbHyMnK0tPU1dbX2Nna4uPk5ebn6Onq8vP09fb3+Pn6/9oADAMBAAIRAxEAPwD81EUMwUnGT1r1j4V6Taskt8LPaYlRBx04NeTbtvNej/CPXyLpTNKcXsPkv7TL90/jXxuc06lTKa3s3ZpX+Sd3+B+y8E4jDYXirCyrxTi5cuutnJNRfbe2+x6a0q4wMAY6VH5x9f0qolxOHxL/ADqQzIRynPrmvyU/r2nTSgrIm88f3qRZQDndVb7YvrUZuSRjBoszeNJljzvm7daltpxuHFZrXChiCf0qW0mP3SeetQ1Y76FLWx0+g3kcVxuJK+/pXIftH+Cv7d0lPGlq+9oo/JuzntnKt/Ot3TZSsud3atzVZbIeF7r7djyTasZA3Q8VvlWNrYDM6dWGutmu6fQ8HjTIcJnvDWIw1d293mi/5ZR1T/R+TZ8kPAIZDEG+6cU3C/3v0q5rkAi1LbnlouR6ckfyAqhtcHGf1r9q5T+I1K60FLAHBNSQuM8HvUYtz1LVNFGi84P51QcpMrZODXs37PWgeHfEnizwroWv6X9osZrW7W6iWbaz7GmYAMM7T90ZxnCjj18VIJIwa9Z/ZlvrhvH/AIetGYsz6wtrAm4DPnBVxyf7z5rkxii4RUldc0dP+3keZnEYvLpxk9Hyr/yaL/zPetZ/Zb+HVnfS3el+Jb+a08s+VaXESStbkkgOzBoxg4J6f414t8T/ABf4H+H2kT+DtF8QzavcOWEki2YiVPnDf32z3HFdV+2b+0V4ktfEl18INB1Sa2g08FNUmjBjeaR1JaL1Cru59TXzCzl5CQ3Br1IZRl9OvGpTjyWvt1PB/s/D0akZwVrHa3Xgv4g3OjaVrfh/R5b1NemkFjDpjx3M7NEwLo0MbNJGwxkhlGAQe9VtZ+GuueDH1aT4oWWo+GtThtFn0zSNT0iVJtQMjYAUttCqNhLOc47Aniu3+BH7QU/7K+tjxv8AB/TrXVtS1HRxa61/wklggjjfer7YNh3gAADcW+bngdKq/Hb9qnx9+0PcHUPi9pmnX91DbiDSZYxJF/ZkW4MUiVGCkE5JLhiSTzzXp2sendOKfU8iJZ5BIRjI/wAK3vBPi2Lw1fm2v7CC7sb1kjvra4HDRBwSVbnYR13YP0rNlskksVvUuYcliDCrnePwxXrH7Ff7Ivjb9qn4qQ6VY281t4f0qaO48Q6qbcskcQcHyV7GR8bcdgSTU8kuwUU5VVYh/ae/Z/1T4B+NIdPnjcadq8TXmjO69YCQdmcncU3BSePpXmqlwfk649K/VL9vL9nNfi5+zZc6RpdgJdX8M2/9oaXKije/lqfMiBPTeg6f7Ir8r9jwSmOaMhgcEN1BzXBiaTpTu+p9CouwD7RgbMYx3p8fmY/eYoidj1GPenM2BuY9K5DOzTCo5IUY5LAUjZlOUHQU17ecjK8UDV7kqQJtAxn8aPICsT5hUY5FQK00Z2kngU/7Qw646UWZISAqAm/cKQ3LRgDA6U0fMcA1ILRXQE+tA0rjDekHBAoNwWGCcj6VHNCFJOORTFxuGRn6VPKLUmgtGumCxcsWCgAHknpXu3wW/YO+InjZIvEPjyU6FprMXW2kUG6mHY7efKHu3P8As13P/BNr4YeEVGofFLxZpMctw85tNKluo8+QF2mSVPfPy5x2b8PpPw58Rfh54y1i+0rQfEEV1d2M5juYJeHBHf0Ir6fI8tyytaWMqWb2j0fqeXjauaexnLC03KMFebSvZeZm/C/4PeDfhppCad4W0OK1Tb+8lHzSSn1Zjyak+JHwd8BfFPR5NH8a+GorrcoWG8XKzwehRh/LGK2fFl3qGkabHJYQBVDfvMYAHpWJoPxDumvUs7uBplfoUOGH6dq+xr47LcI/qtWK5e1tNTkwHDvEOZQ+uYek5R195ONtN09dPuPlH45/sRfED4bef4l8FSN4i0hMySCCDbdQLnjdGOG9MqT9BXiUu6FjBJ8uCQdwxj656V+paMjENEd2eh9a8u+Of7JXw9+NNsdUS0XS9b286pZwgbzxzKoxuHv15rwcz4ThNOvg3bryv9H/AJkYLOKkJqnieml/Tuj87mt5v4IXb6DNdB4CmvYrh7NVeNx+8hLjAyPQ+vtXV23w9/akniEkvjh489mv6ng+F/x9lljbWfGNndwxyh3guL8YbHboe2a+Y+oabnuTxFlomn0a6G3BqP8AaNnHqO3BK4kA7MOtSm5cnJY/lU1v4H8W6Npd1f2Xh3UL/SHfL3VpAZRbSDqGA6A/XsKyP7UtYm2TGRAe7xkV+NZpkWPwOPnTVOTh9lpXVn6XP7A4P41yjPsmpVauIjGso2nGUkmpJWb1tpLdF83GDgu1J9pH99qu6H8M/il4wbf4M+Her6lEB888Fk4hT1JkcBABjua2l+Ds2kxu/wAQviR4d0BoxmW0W7+3XK8E/cgyo/FhWmG4cznF/BRaXd6I7s28QuDMli/b4uMn/LD3n+Gn4nLGUEk7j1p9vqNstwI1dpHc4WOBC7k+gVQSTW3d6p8CPDhEul6FrPie4TjzNUnFpbMfXyogXP4sKz9S+LfxAv4jpvgvTbPw3aFcNFodmImb6ycuf++q+lp8CQow9pjq6hHy/wA3/kfmmN8eoOr7LJcC6kns5t/+kxX/ALcbDeGvF1rF5+p21locGeLrX70QHb6iIZkb8FrK1fxv8NdPhlhuLy98S34jKQAp5GnwtxhzH9+QAdNxXntXNw+Cdb1aQ3Gr6jLI0hy8k8jO7H1JJrW0/wACaNpsau6eZIFwZG7/AIV1U6nB+SN1MNH2lRdd/wAWtPuPjsyx3ifxrSdLH1vYUXvGPup/9ux1fzfoeU+KdEvRq41C6txGlwhEIAxnmqH9jEcFDXYfGXSNQmsLNtI8S/2OI5mEsvnyJvz937lc9pXhTxXKMH46OAev/E0uzXvZbKWZ4OOIel76Lydkfnea4aOS5lLAq7UUtX1utX99zP8A7If+6fzoOkSAfKv61vp4E1iUb5fjm5Oe2p3lSDwPqe3H/C9rgfTUbw16f1F9zl9sjml0u4VwSvANen/sz+G49c+KfhzS7/5be78QWkLDH3v3m7/2WuWPgTUwM/8AC+bk/S+u/wDGvTf2P/Dl3pH7RfhCa68fT6yn9vQb1mmmcQ4WTkeYe/Tj0rnxmA5aPNzdV+aOPHVHVwzhKPVfmjo/+Cjf7G3xY+HHxY1j4z6N4fudX8JeJbyTUU1W1hJSzmfDSQzBclMMThiNu0jnOQPl2Zp7i3jgyWSHdsI5xliTz9c/y7V+7enam1oWtZkWS2kBEsEqBkYHqCDwa5zWv2b/ANlXxrftqvi79n/wtqF0c/v59IjDf+OgZ/GvbjQSiro5J4T2qXK7WPxDCSn5VU8muj+HPwZ+K3xf1f8AsH4b/DvWtdu+MxaXpss+wE43OUUhF56nAr9ntP8A2Vv2TNIu01DS/wBm7wXBPEcxyp4bt9yn2ylehaXeaXp9oNO0fT4bOEAL5VpCsSYAwBhABjiteQ6KOXtyXNLQ/Oz9mb/git4s1K5tfFP7S/iBNIsjtkbw3pU3mXUq54DyrlIuQM7SzbSeV7/f/wAK/hr4H+BHhCPwJ8K/C9rpGlxWxgW3gj6q2NxZjyzHGSxJJrpo7gz/ADs2STyT1pLmJWiIC81pCNj06eHoUvgRyOs6bGGaN4lZHUgq3II9DX5g/wDBRL9ky5+EXxGl+JvhLRbhfDOtzlto+dbC5JOYmYfwngqSOc46iv1Q1O3MimNhgg8ZrkPH/wAP/D/j3w3deGvE2kxXtneQtFdW0w+WRCD+RBOQRyDzXNiMPGvHzOxpdEfibJar0A/OljswB0/CvpH9qH/gnjB8C5pfGF147vT4XluNlvff2W8ptsnhJijfIfQnAb9K8V/4Vx8Gv+Wnxozjp/xKpP6mvO/s/l0cjznWqwn8H4nNraqoxt/Kkn8iGMtIeBW/L8NvgmRvb4yZOf8AoFPWL4s8HfDjTNLabwn8QZNQumO1oGsGjCoQQXyT2JHT1pPAJK/MTVxVVU/g/H/gHE678VIbCf7PoFgk23rPOuRn2HT86o2nxf8AEluggS2sNoPANhEcf+O1yuu6bqOgak+m6jbvG4G5CRw69mHsarJIXGQf1qfZwPD9tW5ruTPTdG+KGg6jKlrr+nrazSHAu7QYUH/aTtz3HSt54hH0kDgjKsD1FeLNKP8AVEf6zgsCePY4r1b4a+Hvh/feE4YviX4ou7B4zusIbWAswTJw3Ixj0rN4dzlY6MFjayk09fUnmBdto7mkeznRd5XitS58Lfs+4OPHmsdeD9i/+wrT+Dfw3+Enjf4r6R4a0HX9Suma6EzrPb4R44/nZWyoABAxz610LLUnfmO+WOqL7K+//gH1d8KfFfhL4QeANJ8Ba7cyWOq6fprPLHIjFXmfMsjAleck/Qeg5Fee+FNQ8d+AtftvinaRlIxKZpRDcqW8liScqDu59cdq6j433V54nhjup/CVxPLA7rFdIyqURs4QgDMhG3GT68day/h/qmr63ocVxJ5NwsQKC2uFOVUH5juzgDJPGBw3WvnI5lTzaVqeig2ou33v/gH6TkVOhlGWvEKDl7SyqJtPTX4eybue9/DT9ojw98XPFUPgJdHlklmh3G5A2qCemVI78857dK7KX4T6bomrfbTbSoyH7rNkV8o63F47+FXipfFfh/Szp6zlSs0LB1DEnaCV6d+MAV9GfAj4ofFbxZpCW3xB0WPyXVRHLJw7cc8du3evsMpz1YiuqGYQ55Rfuytsuln28mfP8QZLXyfAvE5RX9lQqJKUVPWTe909H202XQ7DKWygA4x0Jqre30hHlwTFcdSPesrxj4q0yz117DSZpHClfNDfwZ6/XBBrHuNfQxmc3bgL1G0n9Byfwr3sw4lpU/3WGfvef6LyPkco4UlWSq4t2j/Kt36vofEsfgv48xLtj+EOj4/2rCE/zenDwl8fF5Pwh0b8NOt//iq3HH7PgXKfFHxmx7D+3bf/AOOVEX+A2f8AkovjL8dft/8A45Xict2Elru/vNH4aXX7U/gnWP7T8P29z4amWLMN/pFyLYIwOQGEbHcD9PbHNdTf/tK/tlLqH23XPH2o3F2Cd10YoS5/4GBmuBGo/A2zuEubf4ieLt8bhlJ1q1OfYgyEEV6RbapoviTS4vEPh6fzLW4GVYspO4YDA7SwznI4J6V83xHm2Y5PGFWglKL0d76Pps1uvyPruFeGMo4glOnUqSjVjqnF7rruujt638jl/FXxF+P/AMTpM+OPFmrX65z/AKbfuVHTtn6Vl2HguZpRNqFwpb+6Mnn6muwkHBFVmhQsTk9a+JxPGWdV9FNQX91fq7n6JhfDzh+jJSrKVVr+d3/D/MzLTwtpsJ6KTV+DTLa3UeVGPqBUiopCsRkgU6vm62MxOJlzVpuT8z6rC5dgMFBRoU1FeSX+RH9mQfdOPwqtdf6virM/aoJvufjWLdjep0PP/i9Z6/d+GZj4fhiN3FKjRLNErh8N0wxAz9a8+0zwt8ebghovC1kx6nZaWT4z9DxXqfxP0231PwzeWlxNNGnklmaF9p+XnrXiWk6j8K/MUpb+ICD02XkYB/8AHa/S+EKzngJQb1Tv9/8Awx+G+IOE5c9pzSteP4pv/M7G08H/AB8UfJ4ashk8h7GzP8+lTJ4R/aCxx4e0/wD8FtlWJBrXwuUYaw19sHj/AImsY/8AZKsReIfhjGDjSNcPs+vqP/adfcK9j5hUqVlf/wBK/wCAbC+EP2gkO46Bp/4abZV6d+yMfif4W/aA8M6v4806yt7P+1YYU2w28W6SRvL48vHIVmPORx0rxweIfhcWBbQNSH+94qjX+cdbXgDxt4V0Xxrp194V06SKaO8gkf7TryXJOyZJAVVQpBBUc81liF7Sk09Etfu1OXFxp06Lkr6efbXsfsiJ2VmjZjkHFW7ScFsZx7Vjx3kVyy3UDZSVFdT65UGrVrdFXAAFdyvyq5VNrobImJ48ztU9vM6fMKy4LrMgByfrWhbncMUzqjJ2NWyveQyueDzW1ZzxXEYIbkdRXMWoIfcD9a0LS5dHG3NO9i41XGWpo6npy3K74z8w6e9ZE1msalZUG7uMVt2k5mAyee9V9Ustim5BySelVZHdCakjgfHPgDw7410ifQPEmh22oWVwCJbW6iDo3vg9D7jB96+Nf2g/2APHnh+6vPEHwCbRr225ki8OazpkTzr/AHlhlIw4AyQGwe2Sa+7LmJXf1z2qndadb3cRSWEEnoSOlYzV0FWipo/GrxFqnxI0i+vPD+ueD/Dem3VuSk9td6XHBKhzjowBH1FcN4s17xHrWmpPe2GkwIjsdunWMcR/4EUAz+PSv1++PP7Knwo+PukPpHxS8MrcDH+jataxIl9acYASQj5l/wBlsg5r80/2wP2NfGf7MHiGe3htzf8Ahu4uNula8tuVSUdQkgHEcmOq/lXNOLseXiqE40m0ePQammoaSmma5pVnqFqrblgvIdwQ+qsCGTt90jPes8eAPhxcM0jaVqcA7R2+ooVH03xEj8zVuKErGAo49u1SRhgcY71599TwWpKTTRBa+F/BGjTLdaR4dd5lJ8uTUbnzgv8AwBQqn8c16JoFr8UdP05U019KhjZiQk1ssjKPTJjP5ZwOK5HTjY2sqX2qW00tvGw81ImIYjPYjkH/AOvWkbz4SYwnhDVR/wBvUx/9nrpw+h14aMXdv87HTTt8cbiIxRaxpmD/AHbRB/7Rrrf2cfD3jOw8cX+oeNNTtbgz2Wy3RBGjRjcC7jCrkYwM9Rk9O/lRb4WyN+68Ha030e5/+Lq3ptz4G0u5S/0bwx4ktbmI5huIftIZD65356ZH411anXa3T8f+AfaN94dttfii1XwxrqCSaFnuYzFkJJuO9W5zgg5B5HPGQBXk194N+JV4kvjXSrBY41jJltrI4kCdyyDrkYJwap/B79riDSNZj0fxbpOsW0MyeW2ryWbpFggj51GcHkfNyBgnjv7vatoemW9q1tcKkNxP5v2lMtujUbgoIzwSB9QDXyVTIMFh8ZPE0lyuV3ppZvf/AIb1Po8iz2vgKjTipdEmr6a3X/BPA4PEHjPU7NW80zJbTJKqsfuEZx+dfT3wx1uLxF4ZtPHmkXl15UlqUfT4wGQT4ABAP3eh46e1eV6v8N9W17x3NbeAtJN5FqH3Fto8CFjyS56KvU5r3X4B/AK1+GOhzpql1JcXN9cedPGHPkxnAACjqemefWvWy6g6M+a7d9P8mdvEGYwzJQ5oKKT5o8q6S+KLvfrZp2XoZdh8P9W8UXkt1bqfMuX3ebNwAvPSui0z4D6GbUxa/M10XHzxZ2ofY46ivQrbTY4V2xRKAVwECjAq4mnNgHy66lgqXtvavVni1cyrNWg+VeR+WsGpeGGXdF+yPduPVYbgj9FpJrvw63I/Y+umPYNaXB/9lqCT4v8A7Tshz/wl/iP/AIE2f61DJ8T/ANpedzI3i7xJuPGBcyIPyDgV23PFpvun9xJLNpkh2xfsfSpzxm0uP6pXZ/DDVbwQz+HD8FrrwxbtumimWCYRytgAhg6gBto6g87QMVw//Cw/2m2BB8YeJQCf4dTlH/s9R/8ACa/tGmdJLnxL4iuFVwXguNRkeOQAg7WUtgg4rzs1wUcxwM6D6rT1WqPcybM5ZTmVPE07+69bLdPR/hc9ZnBViCO9U26n61cMzX9pFqIt2jEsSuUYcqT2/DpVQg5PFfhtWEoTcZbrdH9IwqQrQU4O6fUrdetOWRlOckj0zSbWxnafypKTVyUrjHcdKa/3eTzSPhWyWqGTULNcLJcqCTjrzmrp051JcsFdmdSrTpLmm7Iz/EVsk9oySYKvG6kEeq1wGm6N4wVZZrH4E6Hcp5hUSiBCp/8AH67DxtF48v7QWXg3w4Jd2Qbya9jjABAwVGc569QPxrz5PgR8Q1Qf8UtZHJzmTV4s/rX6Xwpl2LwdGc68eXmtZPfS/T5n43xvmGAxuLprDNzcL3a21t1s77dDft7Px6cFfgHoC7embFf/AI5T5n+IyEBPgN4dXH8f2NRj83rDj+BHxCYbV8KacMnodZip0fwB+JMpCDw1pS7u7apFj+dfYuWlj4OVWSl8LX3f5G0z/Fd0A/4U14WAUf8APtBz/wCP1RvH+KaITd/DrQrSHGZriyWFHiX/AL+UR/s0+P8AOdvhqI+raqv8sU6D9m/xgJQ0934Z3KctILwEge2BTlCMqcovVNfoZ1akpQlBp2fpt9x+n/7OvjiTx18FfDHia7m3zXGi24uWGCfNWMK+ccfeB4Fd7HMq9DXzh/wTx1S6074QXfw81/VrG4udDvJHshZOSxtZWLAvnHIdn5Hb6CvejdMrehz0row6qLDx597amFCDjBXN63uQGyO1bWlOsxBZhz6muStb8kgADOa6PQ3Ey72bocZrU9CLubsFuCoCkZPcGqHiL4heD/At0uma0dRur8xiRdJ0TRbnULtkJADeTbRu6rkj5mAHPWuo8MeGnvoDdanei1tcfLIBl3Hqo/rWhPqmieH4207wrp8dvA7ZnlI3TTyd3eQ5ZifcmqVrBKjOTTPEfEP7a3wu+HN05+KHgb4geF7RX2rqWteBb1LYjqD5iIwGQK63wd+1L+zB8SdNE/hP47eGrsldxi/tJEcD3ViGH5V1eqa/NcxtFNczOjLtZHbcpHoQeDXzN+01/wAE0/2cP2jbW41bQNEh8GeJnUmPWNHtgLed8HAntxhSCeroA3U/NSuzpVOrCPuml+0h/wAFEv2ZfgLpVw9p42tvEesAMLbR9ClExZx2d1yIx6k8+1S/softsfCr9qzSjF4fnGna9Ahe+0G7kHmxr/eQ9JE9x+IFflV8ff2dfi3+zV4xfwN8WvDDWFyw8y2u4yHtr2P/AJ6RSDhh+o6ECue8B+LfGPw88V2XjPwVrNzY6np8yy2lzbSlWVhzzjqPUHgisZ1OVnC8xr063K9j941jtrmIjOR71yvxG+GXhD4neEtS8A+NtKjvNM1S3aG5gkHHOMOD/CynkHt+JFeVfsLftteGf2ofB72eviDTvF+mQqdW0pWwsq5x58WeqE4yP4ScdOa99ZEuojMicHoSaqCU1Y9uMqdWnY/Gv9pX9lPxR+zT8TLnwRr1x9ptJiZdBv1H/H7b9jjs47jtXmJtZLabZPCQM8Gv18/bV/Zst/2i/gvd6NpSLH4i0pje+HbjHzidcEwqewkUFcepBr8vNB+AHijxXYJq8Hi/RrZmdke2uLl1kidThkYBDggiuSeGXNdHz2MwsoTMbwnq2u6TI9z4d1DT7djEY5ft0LvuyQfl29OnOfUVvp4t+InDf8JR4f8Ap9gnP/stalr+zf8AEe1iEEHxF0tQPurHqs6gD6BMVL/wzx8W/wCH4h6cf+4nc/8AxNNU7RsYxdSnGyuZQ8YfEvGU1nQ2HqumTn/2lU1v4z+JxBQ6tpOO4XTpx/7Rq/8A8M8fF3/ooWnf+DK5/wDiakT9nz4ukCIePdKOSAC99MeTx3SjkNbVP5X9xTj8U/EKUgS6jpTe39nS/wBYK9h/ZI8MfHbx1q4h0fQNOi8Li4VtSe6nJgXJyRABkhj1wPl45x1ra/Zv/wCCffjPU9Rt/E3xr15xp6OTHploxD3WDwXYgFE9gMn2r7P8LeE9J0DT49J0iwjtbWAbYLeFNqoPYUOEGmnqXCE1q2zA8G/DzRfC9sLWxsE3MB5kzINzH69vpXT2ekhcHYFA6CtOLScAOi4q1Bo8pbJrSnTS0R13dtSpZ6eiLkrznrVoWGeQlX4LLacbT164q0tuMcD9KrlZjKLvoflZ9r/aX/6GCD/wBuv/AIxQ19+1D0j8V2yD/bsrkD8zBVKP4M6qxzEPEsw9B9mH/txQ/wAIdbgP/ID19iO0l9bJn/yNUtXMkr63ZNPL+0xIc3Pj7SV/66Cdf/aQqs83x4AKz/EPwmuevmaiy/zWnD4Xa6GGfCOqtj+/rUP9JxTm+HuuxjA8DTn/AHvEMQ/9uqY7+b+//gF/wrrGtWlnNpfjzxdoNzO75sm03UPMZs5JUqQMdsHvz6VeYICSxA9ya5w+BNfOP+LfaYf+vjWYz/K6qf8A4RfxwOR4b0hfRJvEICfl9qr4nN+EnmGMdejNR5t009+69evmfpORcePLcvjhcRSc+TRNPW3Z37dCXWPFWhaJOF1HVoI933FaUDdjGcfmKpv4x0m5tzJpmqaWzt/qkvNVjhVvXJ+Yj/vmkXwFr0OX/wCEO8GRnOcm8hb+U9M/4RbxMjYXSvA6c9DdxZH/AJFrLC8FYGlrXk5v/wABX6v8SMX4g5lWdqFNQj56v727fgc5q1t8QdblYD4m+EbSAscRW+qgHb6FipJ/DFVtP8O+ObDd9k+M3hyIuRvxrZOcdP4feupl0XxNCvzReCB/2/J/Saqz2PiVeGu/BSc9rxf6y19Nhsuw+EilQgo+a3+/c+Oxub43Hy5sROUvVu33XsvkjNGm/EMrg/HbQx7DXsD/ANAqKTQfHcz7n+PGhg+/iA//ABFaUsHihDti1nwOhz1GqIp/SSo3t/G2M/8ACW+DQMdtZ/8AttehBank+1ZnN4d8cdP+F9aCPr4hP/xFSjw344Kgf8L88P59vELf/EVYktvG2Tnxl4PHH/Qa/wDttVzp/jNn3r4+8KA+i62Rj85K1shOq0Sp4c8clML8fvDuf+xhf/4ilHhzxyB/yX3w7748QPn/ANAqpIvipW+f4oeGlbH3BrD4/MPimSDxSRz8UfDYb+6NWk/o9JOzMfazbPWv2QNP8fab+0NoW34z6dfQ3AngurW11F5fMjaJidwIXA4619xnX44lAu4gr+zcV8Afsoa3q/g/9orwx4n8TePdINlBePEZYr5yA8sbxJnzHCgbmXJPQZPav0VudAstemS2QwpO0YaRsjC9eSPwreMrqxUeZFG01GS8ljtNPUvNM4WNE5JJ7Ad69N8FeEjpVul54tlMkhB8qxGQq+hkPf6CszwN4c0TwdiaxUXF4yYlvpEB2eojB+76Z61u3F+bqTqTjpntVHp0qemprXuvXNxKf3nUksR0zVJ7l5fm3HnnNVFkZGyD165pUuOCAPpQdkafcfMytyWyR2qONyrg7R+NMCFhv7ZxU0cC7QTn6UG9uxynxx+Afw7/AGmPh7c/C/4paUk1lIC+n3oUefptxj5Zom6jnqvQjrX5I/tJfsweOf2XfihdeAfGVt5kGTLpOpRqfKvrckhZEPr2I6g1+zQKo+wkjHfdXlH7W/7NGg/tPfCubwfMUt9atGM/h6/Zc+TPt+4w/uPgKfwNZzgmjhx+FjWg5LdH5PfCr4heK/g946sfiL4F1V7TUrCYPDIpO1x3R1/iQ9xX68/s8/HjQv2ifhJpvxH8OogWdAl7aswZ7W4Cjcj/AN1sn8q/HjxD4d1jwnrt74W8QWT217YXLwXMMikFHU4IOa+if+CZH7Qk/wAKvjC3w21nUCuj+LSIo0Z8LHeqP3Z/4EPl+oFZ058uh4+X4mVHEckj9M4nZZY5gQNrBumeQa/Nr9tD9mzxBbftLeJbDwj4gg0qw1SRNdTYptkkacYYDacEhlP86/RuO7ZYCrg5DdCa+Qf+CrfgLxb8QNG8HXHg/RJr+a1u7uO4RFclECKQfl6D3rSsrxPTzHldHnR8np+zR8RGOG+KkA/7iDU6b9mL4gk5/wCFswj/ALf2rkrr4B/Gg3Ujr8PLxizEgeVMOM16T8AP2A/jD8Vb2LU/HUH/AAjmiEhjKS8lzOv/AEzTO1c/3mPH901kml0PHg1P7Jk+Hf2OPjN4w1E6T4U+Ia31wuDJFDeN8ik9STgAfU19ffsr/sIaF8DDB4r8ca6/iXxNE7PbXc5Jt7JWA4ijbPzDvIefTbXqXwc+BPw++C/hSPw34B0FbVDEoupixaW6cfxyO2WY55xnA7cV31lpcrBV8s8DrRJtndShCOy1IbGxOzJXk9a1LPTsMCV/CrNjpmxQCOa0rbTwGw3H4U0nY3M9LVuGz+lW7S2JHzDitCDTt5Eark5xjHU+ldr4B+BfxI+IENw/hfwy7Q2qg3FzcOIY0yMgZbGTjnA6dTiumKSFKpCnG8jgxajOCDUv9ljbvLHHuK9c8EfCr4beGre68WfFzxFBdwWxKWeiWE+WvZAM4LDkL2yCAfXjB5Xx34nTxFLHBZaDYabp9tI5tbGwt1jRdxyScAZP1p8piq6fQ/F64h/Z/c+bcWLE+rapET+k9Rq37Oac/wBmxH/evCT+k1c//wALx+E//RKtT/8ABvN/hS/8L0+GeMQfDDVB7f2tN/hXKc8U1FnQNqX7N0A+fTYAc9TcyH+UppF8Rfs5j7ttpn/A2nP/ALPWB/wvLwAenwo1Fh/tanK38xR/wvPwD/0SG8P+9euf6UGR0H/CR/s7AEf2foTf79vdn+T0N4o/Z5jG5NH8Nn2+w3rfoZa5/wD4Xp4B/wCiPXP/AIFP/hS/8L18CrzH8ILgH1+0uf5iguMpJ3NmPx/8CIP9T4f8NkH18P3T/wA5af8A8LN+Cca/J4b8Nn/uUpm/9ClFYMPx78KIP3PwbnlH0Lf+yGp4vjx4clXK/BeRD/txEf8AtKp5TpjNs1j8XPg1bNuj8M+Hc+q+Dn/rMaQfHP4XW7h7fwzoRx3/AOERI/8AZ6zj8dtF7fCQj/tl/wDaqjk+OOnMcx/DNEHo0Df0hqiG30Nj/hobwMn+p0HQl/7lA/8AxdNk/aU8MJwunaL/AMB8JMP/AGrWO3xvtCPl+HcYPY/Z2/8AjNRH41E8f8IRGP8At0f/AONUtTN+1tuax/aW8PZ+Sw0nOeMeFW6/9/KY/wC1CkDBbexslUn7w8L46fWSsY/GUOefBsS/S1b/AONU2T4wRFefCQB9V01n/wDaYo1JaqOOpuP+1fOhx50Ge2PDy/8Axymz/tW+I0099QsLyIqvCK2gxAM3pyTWEPi8A2f+EZP/AIJn/wDiK5n4jeK28RJAH01bYABiotljY89Tjk/jSvPoZpTUW2zr/EP7XvxF0+6Mejz2wkUYF2NLhjaNu4A2nmuN8EftK/Ff4d/FWP4x6X4kuLrU1J+1JdylkvEzzFIM/d9PSuV1EtfTPI/VpC3A9azZ08pvLkyAeme9SptPUwdeSmj9rv2YPjl4S/aG+E2mfEfws237TCFvbV3Be2nA+dD9DnHqK9EYeV82Bj1r8ev2Ff2tte/ZU+Ka3N4HuPC2tFINftllOYwG+SdB0DLzn1HFfrfofivRfFOiW2u6HqMV1Z3kKy2txC4ZZEYAhh+BrqjNS2PpMFXjUgaRvFJ5YfSpIXEnGe9ZLpcSzZt1Lc5+WrFtcSW7BZwVPoao748rRtKfLiwcZ64qN7gjI4HFQm6Dxb93UVBLdAfxUGtkSyXOCSSaZFcEuCCQc8VA/mNzjj0oG9SMRH60GbVz4Q/4K3/AD+w/E2m/tEaFbOYtWk+wa7sjOFnVQYpGI6b13j6x5718c6Bqd1oeuWus2d08M1ndJPHJEfmUowbI9+K/XX9q34eW3xn/AGf/ABL8PTGj3E+mS3FgWHzJcwqZIyM8AnBXP+1gda/NX4c/sQftYfFRE1Hwx8Hruy00qN2r+IZFsrdgehXedzfgtc04PmTR8zjcMo4rngfqD4D8e2/jL4e6H4vtoyE1LSre45OfmeMEj+Y/CvC/28dM+LXxCuvC3gT4MeE5NRuA1xd6jqEwEdpp5yiJ5kjAhiQSdqgt8teufAT4da18NPhL4d8C+JNTgvbzR9OFtc3EBJjdweNuecAcDNdfb6LGsjzJCoMxBkxxuIGAT9K3dmrXO9e9QUZHz38DP2PofCqjxL8Wdcj8Q67cAySQpCEs4XJ3EqpyzkHPzMecg4Fe8aRo8dtElvFbhEVQoSNQFAHTgdK2bfSIQAqpwKu2+lqSAoxjpU8q67GahTTvYo2elIp2+Wa0oNNXAxGBV2ysNwACc59Kvwac+fuH8qtJI1UYrYo2diqDIH0rV0bRJryTc7bVHU+lPi075TnrVu2tzGMZ4plW0N/Q9e07wK4v/DNrE18yFWvJlDFM91B4BHPPWovEfxE8ZeKtNg0XX/Ek89na/wCptQQsYOSdxCgbm5PzNk+9YsrFelR5ZuKDKVOMt0OcK7GQgsx6uxyT+J5qOaWQ8MCaeit1xQ5Oe3T0p3YcsV0PyQsrH4ty4x8RfAqD1jtY/wDGp/7M+K45k+L3glPZrOH/AOLrwX4c+HvHfwu8BaZqvxO+EsWqQazeMmmrd3ey4iG0ssb8EgsFdlBJYhW9MV6Fpl/plxAJIv2WoW9nvGP/ALJWKPOjW5+h3Jg+J0XD/HjwfEPSKwhI/wDRlAPj8cy/tGeFU+mlw5/9GVycIExzD+ynanHrdP8A/E1cFzqIGF/ZN0z8/wD7CmJvU3C/jTof2m/DQPp/Zdv/APFURaj4rt+Jf2pNAX/d022H9a5159bZvl/ZT0ROeDJHn+gp6nxivMf7M3hhfT9x/wDZUmrmqlY3W1vXF5l/az0Nf+4VbH+Smj+39VQbv+GvNG4P8Ok24/8AZKxUPxFZv3H7PPheMf8AXoD/AOz1IR8UE+dPgR4TUjputQP/AGpUuFyo1TY/4SrVf+ju9K/8F1v/APEU2XxVqoGf+Gu9K/8ABbb/APxustLj4wEfuvgv4QX/ALdB/wDHKkiuPjg2VT4VeEI++fsI/wDjlCiU5onk8Wasgz/w1zpR/wC4VD/SKov+E21YHn9q/TW/7g0ZH6RiiV/jgy4Hg7wlAf8AZsY/6vTA3x3UYjsPC0fPaxi/q1DiCmkxtx40v3/1n7Ueltz/ANAZf/iKiXxfqP8Ayx/aW0lznvoyf/EVMJP2gE+aGbw1Hg/wW0IqO4134/2FtJdahreixQIuXeGKInH029abjaDZFSqowc3shkvjLX1IUftAadKO6rpA/oteO/FPWbnX/FlxdXlz588j5kmC4Eh9cds9cV2WtQWthpmIlTCx5KkkhjkAA59yK7H4U/8ABOH9pb46eHv+FmeHtJ02z0+6Xz9Pi1W/8ia7jJ+VkTacAjkFsZHIyK5YVPbNrsfP4HNJ5spcsbKPnv5ng9jpSqglkGSfUVJqOnWV6hUxhXHRxX0D8SP+Cb37Xfw4tHuZPhf/AGtbpE0jSaHdpc7I1GSzKpyoA9a+f9X0zWtC1GTTta065s50bDQ3cDRsD9GArT2djolSqRd2c3dWU+muYpchRypPf6V9E/sV/wDBQ7xP+zitt8PfGljPrfg8T5SJW/0nTgT83lE8OhPOw9D0I6V4neEzwmCRAw7bqyLjw4wO+M4B/hqVeJvSr1KMrpn61/D3/go5+yH4wsIr23+MFjpExTdJaa3utZIvY7vl/Imum1D9uD9l68X9/wDHfwc5AwH/ALVTJ+uK/G0aY8QClj9aVNBlmG5IQfwFV7WZ2rMZo/Ydf22f2b0Ty4/jl4Q29v8AicJ/jUbftq/s3qxkPx08Ij/uMpX4/jwnqEnMaoBn+ICj/hGblOHRP++RU88g/tKt3P15X9uz9lsEpJ+0B4UU56HUjx/47Va+/b1/ZVs0L3X7R3hNFPpqDn+UZr8jm8MSkYMafilQP4Vu433QMB/uij2kxf2jV7n6zxf8FC/2NYLrz2/aR8N7h12yytn/AMh1mzf8FKf2KWkDSfGa2bb0Kabc/wAvLr8qx4d1jHDv/wB9U4+GtVx99j/wKlzyIeMk3c/VO4/4Kk/sYWCr9m+Jdxe4YD9zpcvA/FRVZ/8AgrB+x/DMyw+JNWmAJwYdKYj9SK/K8+Hr+M4CN+VJDp2oxEnyzyecg1qtRSxs2fqsn/BWz9kJRxquuk9gdHb+jVv+EP8Agqb+xvrs0aXfxBvLBpWA2X+iXXyE9i0cbKB7k4r8kobeYnDZrW0+xaJNzL3q7shYydz91Phx8Zfg58WEaT4Z/EPRdZ8oASrp2oxyspIzgqDkH2IrsUWEMBvGTwOa/A7R9UvtE1GHVNKuZLa4gcNFcQOySRsOhVlIKn3Br6m/Zl/4KjfFr4X3kWgfFWa48U6I8qDzJQDfWq5wfLfjzAB/C5zx1qud9Tqo4+PN7x+p6xAdKeqgryK4z4L/AB5+G/x08KweLfh34ot9RtJSUcRHEkMgALRup5VhnkexxnFds1whjKouPxrRao9JSjNXRWnRfSogmDnNTMdxyaMD0FMm7IzwcUjc/L3NLTWOBuHXNAj8KPiJ8ctf+O2t2dzPENF8PaTdPPo+jPG0rIzKUMkhXGW25XAOFBwOdxKWninUIQD/AMJTEfd7af8Aq1dlb6b+z+iBIPjleoq9jpY/wqVbX9n5flf483Yx1P8AZn/1q5meNGnJbSRyS+M9VCjyfEkLfVH/AKmn/wDCZeLm4h1+x/7aREf1rqXi/ZzCkN+0Fdg/9gr/AOtUK2/7O7PhPj3eOM9BpWP6UFezn/Ojmz4k8YOcza9pzc/88wKX+3/Frf6rU9Nb8Yx/WuqNj+zmY/m+N16f+4f/APY1CdM/Zrdv3nxnv257WH/2NAezn/Ojlv7a8Z/8/wDp3/fyP/GkfWvGe0/6fp3/AH8j/wAa6pdK/ZnJ+T4tas2O66UxH6KaWXT/ANnJEwvxP1Vvf+zJB/7ToD2c/wCdHIf234wDEyXtgR6LKg/lmmTeKfEKDadQtEbPJ88H/wBlrq20r9nlmxH8SdWYk8AWE3/xFKNH+A0fI8daq2f72nzH/wBkpPUfJJ7yX3nLJ4u1tVHm+JbZfQKpb/2WiXxtexr++8SnB67bJj/SurFh8Bwo2+MdRJ9P7Nm/+JqCbS/guy7ovEN+R6/YpB/NaVhqFnfmX3nKP45sIzvl8VTBv9nT2P8AhTH+KOk5Vb7xHczIjZC/YGXn9fWugey+CyZ36vqLY67LVv6gVWuIPgY4Ia91XOO8BptJq1zOtR9tSlTk9JJp69zndX+I9hfWUiWlysm6WPCNlSAGyevvj8q/X39kLxbpXiz9n7wfrml6ol5t0SC3uZ449gM0ahHG3J28qeMmvySv9J+BaD/X3y98mwyK+yf+CWn7TXge0aX9mmDX2/ds11oAvAI2cNzJCowM4OWGSSc+1KlShRlddTiy7AU8uk3B6M/QW0v9seYmYOc5I44rmvif8Cfg58aNObS/if8AD3TdWUx7EnntwJ4x22yrhx9M49qvabdt+VacdyoAJY9fWulJH0EVCcfeR8O/GL/gixoN3cXOq/A74ntZl5sxaPr8O+NVPXE6HcB6ZQ180/Ev/gnV+1x8NxI198IbzVIQ5ENzoTrdpIPoh3DjnBFfr6JYmIyOe5xRJLlNq56c4qXTvuY1MHB7H4eat+zP+0npRxd/AbxSpyRtGiTN0/3Qa4O61LU9JuZdOvLGS2mhcpNDMhV0YHBBB5Br98JZZFf5JGX6Ma+T/wDgoB/wT40P9oS3n+Kvwv02Gx8aQp/pVumI4NYUA4BA4SYdAeA3fms/Zcpx1MIobH5frr1+6mTzAMdjxWzpc4nt/NZSMHv3+nrXpnhDWPDXgzQdN8C/FL4Zr/afhTXprbUI77TUIS2mB3tLlCWdGyVB44Xg1qaZp/wHudQ1ud7jTbOE3tvLpP2mLaY3AYSoFUbUVmBIwMfMMdKznHsc6g0eSS/ZyCQOR2xzUKwvvxt7A9ema+idO8I/s2XT/btT120SHy2KQCXkuD8obB6H+lYGofCHwZd/DOe+0/UdJttbg1Gd1Lamuy6tuNm0djjJ561PKx8p4vEyq2WqVXVvumuh+E3w5134vfEPSfAHh2AG61W8SNTj7idXY/Rcmv0lb/gkp+yZdaXDbix163uPJAluYdckYM+Blgr5AGcnHvVxp8xUaEprQ/Ljyo/7v60bYk6qo9M1+gvjn/gjR4Hdyfh98YtTtW5wmrWKTJ7f6va3614R8Wf+CWf7UHw806XXNG0/TvE9rE5+XRJSJyn97yX5P0BJp+zmS6E1ufOLNEo3ELj6Cq89zaxYVZAD6VPr2i6ppF9NperWs1rc2shintriIpJE4PKsp5BFZRtWabcxz7+1RJSi9zOUeV6l2GQSkFQME1ab5VOOwqvbqFCjHerD/cP0pSd2ZuKO/wD2eP2mfH/7NHjKPxn4GvJGid1XVNMZ/wB1eQg8hh03AE7W6rzjrX60/sz/ALSngX9pT4dWvjTwffx+ZgR39g0n720mA+aNgeR7HuORX4ojf1jzkehr2j9gz9qfVf2a/jhYrcai8eg67PHZ61ESuwbmASXnJyCQPoT6VtGex2YSu1PlbP2PByM01m7Cq2m6iuoWMd5HJGyyJkFT+tSGRgM5roPbFkbHFM3g/eNRzyttyD3qLznI6/pQB+NMP7OGpOf3x8HRj1bUHH85BVuH9mwoOdZ8Gr/u6kw/9q1gib9nwHIvtePsFT/4inm/+AqcJH4jb0P7of8Astc3U8Kmoumrmwf2coFP73x/4OjGedupk/zkNB/Z50dQTJ8UfCK4/wCoh/8AZ1i/2j8CwcnSPEMnpueMfyAo/tz4JKPl8I61x/fvAKdjflp+X3/8A0P+FE+Fo22SfGPw8p9I77I/TNSL8EPBUSF5vjFo5x/cvn/kFNZEfiz4IxnH/CEakcH/AKCDf409/G3wcTAh+HupOPX+1HH8jRYOWn5ff/wDV/4VB8Ml+af4radIQehnmP8A7Tpj/DL4WLx/wsG1fH/POOdv/aNZZ8cfCL/oml+f97U5D/7NT4/H3wpiUiL4STy/79/J/wDF0rByU3tb7/8AgFyX4W/Ct1z/AMJg747R2twM/wDkKoH+F/wux8mq6nIc/wDLO3nOfzUVUf4jfDSMZT4NOD/1/wAn/wAVTF+KXgFXAHwfYDsXu5D/AOzVNtSeW7J2+FXw6/h0jxJd+nk2TH/0IioG+FPgknEfwz8WzegFtt/rU1r8ZPCFowNp8JYh7maWraftFQWBBsfhjCCD/fenZGnLBbsz1+Ffh9T+4+CvjGQf9dcZpzfC3TtuYv2dfFL+ha+P9ErSX9qnWFXavgAKAONlxIuPyNNl/ao8QvxD4RuI/wDuIXH/AMXR7orUu5kP8KwWwn7N2vt6CS4b+eytXwJpXjf4V+MNP8deBP2fdasNV02cS2l3HeP8h7ghU+YEcEelVpP2pPEyZ/4kFx/4Mbj/AOLqKT9qHxYxymjTgf3Tf3B/9noVriaprVM/U79n/wCOekfGnwHa+IoLG40zUkXZqmk3sZSW1mHBHP30JBKuOCPQggejWd8X4du/Ffkv8Bv2x/iP4W+KmhJosRs49Q1m0tL3dK8iSQvOisrKzc8E854r9PbTx5oqSIl5ew2xdwkRnlVBIx6KuTyfbrWymrHRSrw2O5S4ycY/WnG4UjG/9awotRbg78Z64oOqvGrEOflGT9KqLb3OlVVY1ZHRiSD361BJJGyncAR6V4v8Vv26/wBmr4RytY+JviWt3fKjH7DoNub2RGB+6+wgIT9TXlF5/wAFgPgBbytAPBHi2QK+BKkEOGHqBnNLniYyr0krs9K/al/Yk8F/tIs3iTT9UGg+J1QIuqRwB4rlB0E6fxlf4SDkV82eIP8Agld+0YDLb6d8SPCWpRs+5RNYSQYO0r05GMHp2PNereG/+Cu37LOq3S2urWXifTF3f6+50sMmOuD5TORnGM4PWu10H/go3+x1r8iw2/xhhgcrkm+0+4hA9tzR7c+2an3WcqlSlqj5AvP+CXP7WVpMYE8MeHbtOcSW2pgE8dgwrJ1f/gnV+13pgOPhFcXI9bS8iYdP94elfobpv7VX7OWoFUsfjz4SdmxtT/hIbcE/gXzXX6X428Ka4ANK8SWF23VRb3sb/wDoLUrQG/Zdz5U/4Jj/ALG3xL+FnjHU/il8XvB7aNeC1+y6Ra3Lq0oR+ZJCBnbx8vrX2yzhAI0kzt4zmsSzv0j+aOInceSvetKJWkXJ4JHQimtNjalZLcmKq3UZoCqARtzzkD0PrUeQvDEGk86I9GBPoKrnRveJ8z/8FIv2OdC+NPwwvPi14V0SKLxboFu889xaQKkmpWwA3rK3G5kAyCeoBHWvy2ktmibDqQc8gjkV+7stxbLGxvdvkFds4k+7sPB3Z7YJr8Yv2kdC8M+H/jp4n0rwe4bTIdauFswkgdRHvOAGBOR71lVXM9DzsVG8ro4PKggqMY6mniVcYbJ/Cn+Qo/g/WmtEgUkL29aiUUkcrSsMZo8fICDiqj6cssgnLkMrAgg4IwfarJbYN4GcVEb2eTIRH98Cs02ncqCSasfrr/wTi+Kd18Tv2XtA1PU7pp73T4n029kdgSZIWwpP1TH5V71JMQOOa+Rf+CRGiatpP7N9zdajbFY77XLie0Yr1ThT+oNfVjTqp+ZsV0Kbse5CpeK0J5nJA78VD52GwwxSrICdznPpUcuyUZQ8jvVKouU0u2fjEuqeDwwK/A/Swc8HFx/8VVmLXvD8QBg+DmkqPRoLhv8A2aull+B3xuZsT/F+zTP/AFDyf/ZqevwF+LRHzfHO0HsNLH/x2sbOx8hNvQ5+PxVo5IT/AIU7o3J/59bj/wCLq1H4k0hxk/B7RQPU2lx/8XW1b/s8/EeWQCf48RJk9rAf/HK0Iv2aPFpUG4/aF2gnnbZA/wDtSmm7Hfh6s3HlZzcHiLw2p2yfC7QPcG2uP/i6srrHg5huf4W6EuO6JdD/ANnrdb9lyeQ/6R+0LMc9SNN/+21E37JulzPm4/aNul9QmnY/9q07npJVWtjJ/tf4cH/XfDbS899v2kfzY0o1L4YyDa/w706ME/e8y5GP1rWl/ZS8H264n/aavvp/Z3/2yq0n7Nvwus8i5/aTvwR/07Bf6mi4Wq9ih9q+EZf994R08DuFubkU/wC0/AsD5/C1sB323dyamHwE+C8S/wCk/tD3z46nAFMl+D37OcKH7R8btSlx/clx/Si4uWfZDI9Z/Z4gJFx4YiI7gG4b+bCn/wBufsvE7j4PJbPQW0/P/kWqr/Df9mS1JY/FXXH/AOud1/8AY1HJ4Q/ZgjJ3+PfFcpHQQ3H/ANhUt3Kt5xLj+IP2Xk5b4bTSf9u8+P8A0ZTf+Et/ZbQZ/wCFUEY7m1uP/jlZ02m/syW/yx6341kI9bxQD+a1UmX9mmPJeLxjL6f6eo/9kouRyv8Aum8fHH7LW3Z/wrU/7v2Wf/45SJ44/ZUhPz/Ct8npttZR/wCzVzzyfs4YIXRvGB9P+Jov/wAbqE3v7PluxKeGPFTehl1dP/jdFxW/wnTr8Sf2abGZLm0+GMiSRuHjkjsnVlYdCCGyCDgg+or798I+JPDHj7w5ba7oWp22o2VzBtPk4kQggblbj1zkHmvzUn1f4IbMxeFNdf8A2W1YZH5IK2PAvx/n+E8uPhb4o8R6FEzbjZR6mssDtnq0TqVJ98GqSSMas4rVpfJn6NNpmrxWrHSPHGt6eys2wwvDcYBJOMTxvgegB4xivB/2r/D/AMb7jwJqOteIf2sdRsdDtIALiGHR47MMjMARK9uRuBJUAnpnHeuH8Pf8FOtdtrQweK/h5Y3sgjwl1Yzy2+5v7zLgj8BivOP2nP2xofjxo0Xhi88Ntp+liYTSQJcvJJIy52hnYDgZJwODx6UXaRw1a1RR908B1fxF4P0u5NnPqt9eKGBLWSHYfpuCn8xVeH4mfDqDel7peqzHjZsUJt9c8HPb0rW+0fDwk7/Drg991yR/SoZpfh0rFm0MDP8A0+N/8TWEndHj1Ky5m7O73tpf8Cjd/Fb4bOAz+FNQkIGCQ4TH1wOaqwePfhjqV9HFdW15Yxufml8rzAp7Z71cnn+GsbHzNDVc9D9sP/xNRLe/DTfhdMAGef8ASAf/AGSobq/ZZm61W3uykjQ0Dw14L8dXr23hvxfbSXEYBMD71lweRlWUdhngmrl58LPF1sC2l2csyIf9ZFMY8/gSCawZj8MpGDiKZSGBBiuACD6g7eK7Xw/8b/D2l2KaVqF9cTxrgC4ncO6qOxx1/nWVZ4u3NGzOXF4zPKC58Padt01+TVvuMq31T47eDbUnRvEniLTYY0IZrS9nRUUnJGVOAM+9bujftV/tQeG3MkX7Q3jASbQFjm16eROOgIZiCAO2K07L4seGdU2p4f8AEtp5jnCRyyiOTPptavH/AIg6V4mg1y5kWUOm9iZvOUgcn3rnpZhiruMoHPgeJsznUccTQ5fm/wBf8z2uz/4KFftm6eytD8ddVdVGBvjhYEf8CjOa2ov+Civ7XGoWwiuvjfqkY7iGGAf+068j8NX/AMLV0K2Gt6pdC48vEwXYoDd+xJrSik+CjnJ8R3sePXYR/wCg16tKblC7PrKeJlOmpXWp0XjD9o343fEayl0zxb8bfEuo2lwcz2M+sSiGTvzGpCn8q5KOzWdg0a9sYUcfpWoifCJx5a+NVx7iP/43Tho/wmdsp43iU9jtiz/6BS52mP20nuZLWsnTnH0pr2TopDE++RXR2dp8PY1ZI/icOeDviibH/joofwx8N5SXX4nWytnkPBDg/hto5/IftUzmo7TY+/grjkVreCrvwdqniKHSfEfiSy0Gz3KbrWNQctHbpuAY7I1ZnbBOFA6jnHWtBfB3w/kGF+JljyO9vF/hTG+HvgeQgj4sWI/7dYv8KnSTsgUqieh9w/D/AP4KbfsQ/Ab4e6b8M/h7NrevWek2/kwT6VprKZBnJZvtAjyzMSTn6Vi63/wWr+HW0f8ACNfB/Wrrafnku7uGHj2Cl8V8dj4beD34i+MWn57D7BAf6UD4X6KzYg+K9kT2xpsNVDU66eMqJWsj6pvv+C16zzkWPwpZAp+VJbwEge5FZlz/AMFofFNy5+y/DS2jBzgmcnHv2r5qb4NXDAC0+ItkVPIP9mQnIpjfBjUkGW+Idj/4KoalOw1iMQv6R9M/s3fBrWf7DvPFHxe1H+17prp0sLaWRjFCmQN20nDMWz26fWvH/iT8PPjD4y+L+sT/AA51L7Ho5kVIYnuyg3KFV8DkbS26vpr41eMLf4WfCfU9egidvsunyeQiRM32ibaBGuFweX2rwBjdXw74W+Jn7RdpaOLW91tfMbJxbua9LGRjTgoJHwGT1MTjMVUxNV6bJf5fceoW37On7RkzAzeM7ZM8n/iY5q/B+y78ebpP3njW2J9Wuyf6151F8T/2k5Dg6lroz6QOP51ai+Jf7SIUI2ua9jH8TFf0rhWh9thlTTvJN/Ox6FH+x/8AGGUbp/HFnn0M7Y/9Cp8X7G/xMYYuPG9j9FRj+vmV52PH37Q8x2/2vrZz2MxFMl174+3XM91q7Z/6iDitLnoc1H+V/f8A8A9Nj/Yq8eSDcfGVpyf+eT//ABypF/Yn8Xqf9J8d2i+32dz/AO1K8ra6+MjDbPd6iuez6k9RCP4m/wDLea6I/wCwjJRcOaj/ACv7/wDgHryfsU6uq5f4g2p47WR/+LqF/wBjGRGzefEuJVzkgWhwPzavJHtPHTEsWuGPoLpyf/HjTZNO8VSx7buC6C+vnKf/AEJqLkKpTvon957XB+x1o4QC4+I6P9LUD/Gh/wBkPwZbuBcfEFuvQxoB+ZWvFU0PWGbbsuv+/sP/AMVUo8M6wRn/AEv/AL7h/wDi6RfPS/lPZW/ZT+GqD/SPH6genmRf/E1Ef2YfgxGcT+OEyOv76Pn/AMdrxv8A4RXUWOZbe4k/33i/+Lo/4RS7/wCgew/3niA/9DoFzUf5T2Rv2b/gSh2nxchx3+0R/wDxFNP7N/wBI/e+KUOe4vFH8lFeOjwc7/62xjPP/P1H/wDFUp8FRkf8g6H/AIFdR4/9CoHzUux69N8AP2b7eMiXxUsmP4Xv81VX4J/syqT/AMTa1+pvK8pTwvEjY/snSzz1a9iz/wChVYTwwpIP9n6IP96+XP6A07hz0l9hM9Jk+EX7KyMUudatSR2+106H4TfskpnbqdsPcXzD+WK80Hhl05itdCU+ovh/hTbjQr9Y8LFoB/3roH+lDkZurT/kR6WfhN+yRyP7Stsen9oyf41HN8I/2RjGcaha5x/0EH/xrzA6LrAOIl8ODn/noT/IVHPYa7AuXTQsdysLHH6VnoRz03p7NHb6h8Gf2XJGYwawhyeALjNZlx8Dv2bCxK6s3ttuK4+VteBIjk03A7LpMjf+y1VfUvEEWR5Vmf8AuBt/8RScUzlqUaVRfDY7Nvgf+zkCca3J1/5+agf4I/s6DO/VpMf9fQrkTrPiAHH2ez/8Ejf/ABupv7Y8Rg5FrZDH/UFb/wCIqJKxyywSezN6T4J/s3+YWh1e4U/xMlzzUL/Bb9nJnWMeMbtW9GvVH9Kyv+E88X26bTb2DD/sXmJH/jtO/wCFoa/bjd/Z+nOQejeHB/UVXLHew4YGnzLmSZ0EP7P3wCZVlXxpPg883aH+YqwPgP8AANUCf8J1cj6XkX+Fc0fjT4tgwR4Z0xsf9S0vP61Inx+8XRL/AMippAwf4/D6j+lVoj0o0MOlZxSNt/gN8BC3/I/3P/gZF/hSr8B/gEoGfiHcj3N5Fj+VZC/tE+LgP+RW0T/wRj/ClX9ojxax2nwpoZz2OiKM/pSdpKxhUoJvQ2j8Ef2eU+Vvixg+hu0/+Jp//Ck/2eAOPiwD7fak/wDia5+T9obxGp3P4H8Pdep0wD/2SlH7SPiCEB5PAnh8qen/ABLgP/ZKJK5yVYSRsn4K/s9Z/wCSoL/4EJ/8TQfgr+z2Bx8VV+n2hP8A4msz/hpnVl4Pw70D/wAF4/8AiKcv7Tmrgf8AJPNB/wDBeP8A4ii7EqiLM3wZ+Ait+7+J6H385P8A4mmD4Q/BSI/u/i0q/wDbaP8A+Jqu37TF+W3H4eaUT/s24A/9Ap9v+1LeI+H+FekP7/YRn8/LprcOdLqST/C74NAfJ8XlHPH7+P8A+JqNfhr8KkP7v40qv0kj/wAKt/8ADVE5UH/hVWnD2FqP/jdJ/wANUT/9Er0//wABh/8AG6iSuxqbkrnYftxfGuz13xbZfC208U3dlFZSm5vIoYMsWP3ASVOOATgH+LnPFeV2/iTSLeIOfiXrYAA62/8A9jXfxfstaz8QfEF9488S+I4pLnULgyAG3zsXJwM7+eMflWnB+xUkpLf29B1/59v/ALOtq9SVWs2zzMswUsNhY0+q3PNIvGGgSnbJ8Stabn/n3/8Asak/4Sfw1/0UXW/+/B/+Jr1ex/YibIaLxJbrz3s8/wDs9aEX7Dj53N4ntzz/AM+P/wBsqelj6ChSnL4Vc8d/4SXw5/0UTWv/AAH/APsaX/hI/Dh+98QtbI/69z/8TXt6/sTFf+ZitvwtP/s6B+xIB/zNK/hCP/iqmzOv2VTseFtrng1gQ/jXWyT38k//ABNQC98FyPz461sZ/wCmB/8Aia92/wCGJl/6Gf8A8gj/AOKo/wCGJl/6Gf8A8gj/AOKosw9lU7HhnleCmO4eP9c5/wCnY/4UeT4K/wCh/wBc/wDAY/4V7x/wxIv/AENI/wC/Q/8AiqdH+xICePFI6f8APIf/ABVFmHsqnY8B8rwUOvxA1z/wGP8AhS/YvATf67xnrjn3tz/8TX0B/wAMTbPm/wCEoHH/AExH/wAVTB+xvOp8qHxdsHT/AI9//sqLMXsqnY8H+yfDn/ob9c/78n/4mljsfhw7bT4x1sf9sT/8TXvi/sV6gQGHjCJv9+zz/wCz1HP+xvqEDbf+Eptzn/py/wDtlFmHsqnY8OXRfhywz/wmut/9+D/8TQNF+G5ba3jnWh/27Of5Ka9t/wCGPb//AKGe3/8AAP8A+2U5f2PrrGJPEVu3/bp/9nRZj9lU7HjC+GPhqwz/AMJ/rf8A4BS//EVHP4a+Fkf+v8bazJ9bSUf+yV7YP2PXBz/bVsfY2n/2dA/Y/cf8xLTj9dP/APtlFmL2VTseJw6P8I4uP+Eo1lue1vL/APG6kFj8Iv8AoOeIvwspf/jde0f8MgP/ANBLTf8AwXf/AGyg/sfuRj+0tO/8F3/2yizD2dTseL/YfhF/0G/Ef/gDL/8AEU77J8Je+u+I/wDwCl/+Ir14/sXOTn/hILb/AMA//s6T/hi5/wDoYLb/AMA//s6LMPZT7HlQb4RgY/t/xZ/36l/+NUFvhDyTr/iw+32c/wBYK9V/4YuYct4htgPX7H/9nQ/7GVgUKyeL7YeoFj/9sosx+yqdjx2eT4SK5MeseLSc/wDPNf8A41US6j8MQ4U6x4txn+4n/wAar1t/2LNALEv4qBPfEOP/AGamt+xX4e4/4qrv/wA8j/8AFUWYKjUvseVHU/hJt/5C/i3P+6n/AMaqI6n8Ms8ax4t/74T/AONV63/wxX4e/wChq/8AIR/+KpH/AGK/D20/8VV/5CP/AMVRZi9jU7HkZ1T4Yr/y++KXx2eND/7So/t74Z9AniM47+Wn/wAar1Vv2LPD24/8VWOv/PI//FVDL+xH4dlOT4vAx/0x/wDs6o09lPseYf8ACS/DT/nh4j/74T/4zSr4k+GJYFrLxA2P70SH/wBpV6T/AMMReHP+hvH/AH5P/wAXUV3+xR4egUMvilnycYSAn/2ei5E4zjG9jho/GPw5VQP7M1wj3t4v/jVV73xh8OipxpOtnPUGBOf/ACFXZ3H7GuhLwPEEn4Wv/wBnVS5/Y10pCV/4SKQgE8i16/8Aj9I46lR22OJ/4SD4ZsMt4Q1R/dlH/wATTY9e+GGCR4I1D/vkf4V2w/Y30HHzeI7rPfFsf/i6kj/Y30Hbx4iuuv8Az6n/AOLrE89U5vocG2v/AAv3H/iiL/r/AHR/hTTrvwuPXwRf/wDfI/wrvG/Y30Dcf+Kjuuv/AD6n/wCLpP8AhjfQP+hjuv8AwGP/AMXQL2c/6Zwg134XDp4Iv/8Avkf4Uv8Ab/wv/wChIv8A/vkf4V3X/DG+gf8AQx3X/gMf/i6P+GN9A/6GO6/8Bj/8XQHs5/0zlY9K/aqiUMdSvM5/57p/hU0SftZwjjWdTPslyn+Fa3/Cw73/AKA3iP8A8Gn/ANroPxCvD10bxH/4Mh/WOtB029ShBd/tdRnEWs6sv/bdP8Ksxan+2DGedb1c/wDbZP8ACph8QroHLaJ4nIzzs1BT/wC0qswfE+yhGH0HxcT3/wCJog/nFVI9LDK8Nyp/bP7YH/QX1f8A8CF/wo/tn9sD/oL6v/4EL/hVub4w6NbnFxofi8f9xZP/AI3TB8aPCH8Xh7xef+4wn/xqqsjo5I+f3lf+2f2vz11bV8f9fC/4UDVf2sRzJf6wPU/al/wqc/GfweRj/hHfF/8A4OE/+NVF/wALc8FM2ZfD/i/b3xq6f/GqA5F3f3h/bH7UQ4Ou6uD/ANdVo/tn9qH/AKDusf8Af1aP+FufDEH5/D3i8nuG1VCP/RVSR/Ff4UTrhtE8RJ679UTI/wDIdFkHJHu/vI/7Z/ah/wCg7rH/AH9WkOv/ALSsf/Hx4q1KP/rpcqP6VIfiR8HySTbeIev/AEEE/wDiKcnxK+DoODYa43GDuvUP/slAcke7+8r/APCS/tF/9Dre/wDgWv8AhUcvjH4/QtsuvG199Pta/wCFXj8QvgWwzLpmtgnri7z/AOyUxfHn7PUr/vtK11j6/aP/ALCtFuHIu7Kg8Y/G08nxhek+v2tf/iaU+MPjdt3DxZfH6Xa//E1eXxt+zrnnR9d6/wDP4v8A8RUn/Ca/s4kc+HtYf/fuFb/2WgORd2Yknjf43xtt/wCEovz/ANva/wDxNV5vHXxj8z954mv8+94P/ia3m8d/s2RncPCGpN/vYP8ASlX4m/s6R/L/AMILeH8V/wDiaA5F3Zzx8d/GEnH/AAk9/wDjeD/4mmy+PPi1F803ia5X3+3E/wDstdWvxR/ZzX/mRLs/Ur/8TUsfxf8A2c7ZMn4cyNj1Vf8A4mpuuxnyLuzjP+Fi/FI/8ztcj/t8H+FNb4k/FNDz45uh9Lsn+ldm/wAdf2ck/wCaXSH8F/8AiaQftDfs9R8R/CqTr1JX/wCIouuwci7s4z/hZ3xVHB8dXvt++FIfid8VyD/xW97j/ruP8K7L/hob4BDGz4VP/wB9J/8AEUo/aK+AgPzfCxx+K/8AxFPQtQj1kcDJ8WfieCR/wnV/n2lH+FQt8VPi5g7fGV+R6/aB/wDE16H/AMNK/AQMB/wrN/8Ax3/4mpV/aT+BRH7v4Xuef7yD/wBlp3Q7UP8An4vv/wCAeYv8V/i/uP8AxWV//wCBC/8AxNNPxX+L2OfGGof+BC//ABNeo/8ADSXwP/6JW3/faf8AxFKv7R/wEY5ufhC0n/bVB/7JS0Dlw/8Az8X3nlLfFv4ug4/4S7UP/Akf/E0n/C3Pi5/F4tv8d/8ASV/+Jr1oftI/s8gY/wCFLN/4EJ/8RR/w0j+zz/0RZv8AwIT/AOIp3QWof8/V955Afi38Sy2P+Et1Dd/18j/4mob74sfFIpi58WajtHTbcZ/kK9kf9pP9ngDn4LN/4EL/APEVn3X7R37OzTFx8F3HuCD/AEpHPiORQ92dzx3/AIW58QQxA8Wamf8Atqak/wCFtfEBevirU/8Av6a9Rb9oz9nUsSfhA3/fK/4Uh/aK/Z0YY/4VE499i/4VhLVnmtS3ueXf8Lb+IH/Q3al/38P+FH/C4PiFGDjxhqXuPM/+tXqB/aA/ZzY5/wCFTuPby1/wpR8ff2dSMD4WOvv5a/4VSZpCbkeVN8ZviNnjxVfn380f4UL8Z/iMDn/hKr8e/mj/AAr1F/jt+z4WJHgB19vIX/Chfjt+z4GGfAT/APgOv+FK7HdnmX/C9/iOvy/8JzqAx/00H+FH/C+PiP8A9D1qH/fwf4V6ifjr+z2Tn/hA3/8AAdf8KT/hev7Pn/Qhyf8AgOv+FF2F2cgPhxqQORoWsflPS/8ACv8AVOn9h659f3/+NfRj/tffDxzn+xf/ACCf8KP+Gv8AwK3+p0Ld9Ij/AIUkZ0ld2PnFvhvqeMjQdYJ9xPUJ+H3iFDhPCOpuP9tZzn9a+kJv2v8AwsvFv4RMp7AAj/2Wo/8Ahr7Tjyvw0uCPUD/7Gq0Z9BQwtL2esvwPnP8A4QHxH/0Jd/8A9+5/8aP+EB8R/wDQlX//AH7n/wAa+jP+GvrD/omVz+X/ANjR/wANe2J4X4Y3JPpj/wCxp8qNfq1H+b8D5z/4QHxH/wBCXf8A/fuf/Glj+H3iR3C/8IXf8/8ATOf/ABr6L/4a1kPKfCO5I9d//wBhR/w1rN/0SG5/77/+wpcqD6tR/mPn5Phh4jKhv+EHum/66Wszf+zCnj4a+JwNv/CEXIH+zaTD/wBnr37/AIa1m/6JDc/99/8A2FOj/axmkbb/AMKjuR/wP/7GnyoPq1H+Y+fv+FW+LXOYfAN6/uIZh/7NU0Pwf8ZTDP8AwgF8OP8AnjN/8VX0Ev7UspGf+FUXP/fX/wBjWhpv7WGoW8e2D4W3IGPX/wCxo5UH1aj/ADfgfOP/AAprxp/0Il9/35m/+KqaD4IeNZRu/wCEHvhx/wA+8x/9mr6SH7V+rS8/8KgupPcSY/8AZKX/AIap1b/oi93/AN/v/sKOVGf1el/P+B81yfA/xpH08DXx/wC3eb/4qnQfBrxknynwNdA/7ccw/rX0l/w1Tq3/AERe7/7/AH/2FDftU6tg/wDFl7vp/wA9v/sKOVB9Xpfz/gfOR+CXjFuf+ELl/wC+Zv8AGj/hSHjD/oS5f++Zv8a+hn/ar1UMc/Bi6/7/AH/2FJ/w1Xqv/RGLr/v9/wDYUuUPq9L+Y+ev+FIeMP8AoS5f++Zv8aD8D/GB4/4QuX/vmX/GvoX/AIar1X/ojF1/3+/+wpG/as1VVyPgvdH/ALb/AP2FHKDw9K3xHzs3wH8YscnwdKf+AN/jR/wobxh/0Jkp/wC2bf419CP+1nqmCG+Cd1jv+/8A/sKqt+1k+7/kil5n/r4/+wp6djndCnf4jwYfArxnjI8BSj/a8tv8aa3wF8Xv18Gygn/pm/8AjXvb/tZant+X4JXeP+vj/wCwqIftZasZMJ8EbonPT7R/9hWhfsKb3l/X3Hg3/DO/jFjuHhKXn/plL/8AFUg/Z28Z5wnhKUn02yD+bivoKP8Aap8UugZPgLdEev2sf/G6ZP8AtReNn/49/gddR/8AbyD/AOyVlY0+rUf5jwH/AIZw+Ih+74EmI9d5/wDjlH/DN/xG/wChDm/7+H/45XvP/DT3xA/6I1d/9/h/8RR/w098QP8AojV3/wB/h/8AEUco/q1H+Y8Fb9nD4jAZHgKb/v4f/jlV2/Z/+IynB+Hs3/f8/wDxdfQf/DTvxAP/ADRu6H1mH/xFI37T3xAClv8AhUZ47G9A/wDadHKH1aj/ADHz2v7PPxNmBZPBk6DpgMD/ADJqncfAL4nxylf+ERuP0/xr6Ek/as+I8ZK2/wAJwh9ftoP/ALTqtN+1F8VLgHPw4wO/+kj/AOIo1OWthKUot8zPnxfgH8UHcqfClxgf7v8AjTD8BPicvH/CKTYHuv8AjXuk37R3xJVjJH4FCE+rgj/0Gqs37RfxVdCR4NiXPQsvH/oNQr9jyXSitjxQfAf4jk7T4UucdvlqSP8AZ8+JYB2+E7rB9Ur16f8AaM+LAG/+wbNP99c/0qrL+0x8V9206Rpn/filJuwOlys8n/4Z6+IffwrN+JH+NH/DPPxD/wChVm/Mf416fJ+0v8VNh/4lGm/9+Krt+0v8VMn/AIlOmdf+eApKWhVmzzn/AIZ8+Iv/AEK8/wD30P8AGj/hnz4i/wDQrz/99D/GvRf+Gl/ip/0CdM/78Cj/AIaX+Kn/AECdM/78Crj7w0rmLD+0nZR4UeA9MP4vV+0/afgthmLwLpg555erFpoH7PcJIbR45Sem/n+YqyNB+BLcx6BDj6pVpHoYfBypSu2mQRftV3anfb/D/TPrueiT9sDWYjt/4V7ph/4E1XY9I+B68J4Zhb/gSf4VLFpXwXRg/wDwh1u3szx4/lRqdi9quplf8Niaz/0TzS/++2/wp0f7YOsu23/hXmmf99t/hWyLX4MdF8BWJPp+7oFh8Jz934bWJ/4FH/hRYd6vczR+1t4iA/c+CdMTn/aNL/w1z4q/6FHTP++WrR+xfDFP9T8PLJfxj/wqaDTPhvPyfB+mx+zhKLBer3Mkfta+MW/1fgrTW/BqRv2sPG7DH/CD6b/49WrPongEcxeGtKA/7Z1Eth4ERtn9n6fD/wBcigIosF6vczF/ap8cK+7/AIQaxPssLn+VWYP2tfiDGMQ/DW0fjr5Mg/pWgNN8F4zDfsg9Fu0/woey8MxqTFr1woA+6l5H/hRYL1e5nS/tY/EhzlfhnaKfXy5P8KRP2rvitIwjj+H1qSTwPJk/wq258ORrufXdQwPS5Q/0qJdU8OKcQeI9WB7AYP8A7LQr3MG6r6kX/DT/AMY/+icWn/fp/wDCnr+0X8dL0Ztvh/aoPaI/1IqaG60yZsDxFrP/AAGMn/2SpXj011+XxBrpPp9lP/xNaak2qdyBfjl+0A3+r8KQpz/zxB/manHxn/aGYf8AIEsx/wBslqE2cPbWNe+otmH/ALJQbIMMR6r4mf2RZP8A4mjULVO41/jF+0E7bv7Kth7BF/qKcPin+0BMo32UCj18mP8A+JpkmlK3zF/FUjem6Qf+y0xfCn2n530jxW4P/T04/mtK6M7VO5KPiV8d1bOy3H1ij/wqVfip8dV4aSyAHrHH/wDE1WHw7069b9/4f8Tdf+WmolR+oqaL4IafekNH4c1fnu+r/wD1qFYOWs/hZY/4W18clPyanZr9LeM/0o/4W98eP+gzZ/8AgNH/AIVJH+zvbMABot1k9jqozTpP2YnmGRolyP8AuKinc05MQQ/8Le+PH/QZs/8AwGj/AMKP+Fy/G2I4uPEdpH6YtI/8Kf8A8MtOOTo9wB6nVBSj9mG2Tjy2X1H9rii4cmJGf8Lo+MvP/FXRfQW8f/xNVpfj38WFBSXxlGpP/TvGf/ZasyfstWcxw+QP+wtmn/8ADJ+juuG1Rgf+wjn+tFw5MSZDfGz4kvky+NUb/thGP6Uw/GXx5jdN41tj/sNBGc/pWz/wyPo3bW0/G7U/+zU6P9kHw7Lk3PiKKP0JuFP/ALNRcOTEmG/x08ZRqFfxBbSY4A+zpj+VRt8evFZGGv7Rx/d8oDP5Vuyfse+FycDxdCB2/wBJH/xVN/4Y98MRnI8ZxD/t5X/4ui5ap4ixzq/HjVc7n0TT5Dn7xPWkuPjzqirn+xNOx6Cul/4ZE8K+VkeNoQcdBc//AGdVH/ZD0Iud3jn5c9PP4/8AQ6XocFajiIrQ5eb4+XErbToVkCfrUC/H6SAEyaLbN7KK6h/2RPDIBB8cQ5/668/+hVEP2Q9DdSIvHsK46eZJn+prNptHHyYp6NHLv+0PgEHw/B+Qpg/aJ2nI8PQfkK6V/wBkHSgx/wCLh2dIP2QdJJ+b4h2mO9QoXNaaaMBf2nJhhR4at/8AvkUp/admHA8NW/vwK6pf2QvCWNh8eREnvv8A/rUf8MheEEPHjuLPf95/9ateRlPDYl20P//Z;shadow=1;" vertex="1" parent="1">
          <mxGeometry x="59.71" y="150" width="42.66" height="32" as="geometry" />
        </mxCell>
        <mxCell id="YzI4RzRZMXD7CQTbj7aD-7" value="&lt;font style=&quot;font-size: 8px;&quot;&gt;observation&lt;/font&gt;" style="text;html=1;whiteSpace=wrap;strokeColor=none;fillColor=none;align=center;verticalAlign=middle;rounded=0;" vertex="1" parent="1">
          <mxGeometry x="49.999999999999986" y="170" width="60" height="30" as="geometry" />
        </mxCell>
        <mxCell id="YzI4RzRZMXD7CQTbj7aD-8" value="" style="rounded=1;whiteSpace=wrap;html=1;" vertex="1" parent="1">
          <mxGeometry x="120" y="97" width="20" height="32" as="geometry" />
        </mxCell>
        <mxCell id="YzI4RzRZMXD7CQTbj7aD-9" value="DINO V2" style="text;html=1;whiteSpace=wrap;strokeColor=none;fillColor=none;align=center;verticalAlign=middle;rounded=0;direction=south;" vertex="1" parent="1">
          <mxGeometry x="355" y="165" width="30" height="60" as="geometry" />
        </mxCell>
      </root>
    </mxGraphModel>
  </diagram>
</mxfile>
